<?xml version="1.0" encoding="UTF-8" standalone="no"?>
<svg
   xmlns:dc="http://purl.org/dc/elements/1.1/"
   xmlns:cc="http://creativecommons.org/ns#"
   xmlns:rdf="http://www.w3.org/1999/02/22-rdf-syntax-ns#"
   xmlns:svg="http://www.w3.org/2000/svg"
   xmlns="http://www.w3.org/2000/svg"
   xmlns:sodipodi="http://sodipodi.sourceforge.net/DTD/sodipodi-0.dtd"
   xmlns:inkscape="http://www.inkscape.org/namespaces/inkscape"
   width="24"
   height="24"
   viewBox="0 0 24 24"
   version="1.1"
   id="svg1557"
   sodipodi:docname="key.svg"
   inkscape:version="0.92.4 (33fec40, 2019-01-16)">
  <metadata
     id="metadata1563">
    <rdf:RDF>
      <cc:Work
         rdf:about="">
        <dc:format>image/svg+xml</dc:format>
        <dc:type
           rdf:resource="http://purl.org/dc/dcmitype/StillImage" />
        <dc:title></dc:title>
      </cc:Work>
    </rdf:RDF>
  </metadata>
  <defs
     id="defs1561" />
  <sodipodi:namedview
     pagecolor="#ffffff"
     bordercolor="#666666"
     borderopacity="1"
     objecttolerance="10"
     gridtolerance="10"
     guidetolerance="10"
     inkscape:pageopacity="0"
     inkscape:pageshadow="2"
     inkscape:window-width="1920"
     inkscape:window-height="1026"
     id="namedview1559"
     showgrid="false"
     inkscape:zoom="9.8333333"
     inkscape:cx="12"
     inkscape:cy="12"
     inkscape:window-x="0"
     inkscape:window-y="28"
     inkscape:window-maximized="1"
     inkscape:current-layer="svg1557" />
  <path
     d="M7.599 17.399c0-.729-.591-1.32-1.32-1.32s-1.32.591-1.32 1.32c0 .729.591 1.32 1.32 1.32s1.32-.591 1.32-1.32zm7.922.88c0-.243-.197-.44-.44-.44h-6.162c-.243 0-.44.197-.44.44s.197.44.44.44h6.161c.244 0 .441-.197.441-.44zm3.521-.88c0-.729-.591-1.32-1.32-1.32-.729 0-1.32.591-1.32 1.32 0 .729.591 1.32 1.32 1.32.728 0 1.32-.591 1.32-1.32zm-15.226-5.722h-1.938c-.243 0-.44.197-.44.44v.45c0 .698.815.871 1.422.871l.956-1.761zm17.003 2.789c-.67-1.244-1.496-2.79-2.362-4.236-.692-1.154-1.206-1.706-2.421-1.925-1.228-.219-2.36-.305-4.036-.305s-2.808.086-4.036.306c-1.215.218-1.729.77-2.421 1.925-.864 1.441-1.684 2.977-2.362 4.236-.605 1.121-.863 2.123-.863 3.35 0 1.16.37 2.125.88 3.36v1.944c0 .486.394.88.88.88h1.32c.486 0 .88-.394.88-.88v-.88h11.443v.88c0 .486.394.88.88.88h1.32c.486 0 .88-.394.88-.88v-1.944c.511-1.235.88-2.2.88-3.36.001-1.229-.257-2.23-.862-3.351zm-13.767-3.331c.59-.983.75-1.012 1.223-1.097 1.117-.2 2.161-.278 3.725-.278s2.608.078 3.725.278c.474.085.634.113 1.223 1.097.359.6.713 1.222 1.051 1.831-1.281.194-3.538.471-5.999.471-2.683 0-4.856-.295-5.99-.488.336-.603.686-1.22 1.042-1.814zm10.206 9.344h-10.516c-1.471 0-2.664-1.192-2.664-2.664 0-1.445.446-2.131 1.042-3.237.916.181 3.492.62 6.88.62 3.064 0 5.775-.4 6.895-.591.584 1.083 1.026 1.769 1.026 3.209.001 1.471-1.192 2.663-2.663 2.663zm4.864-8.802c.243 0 .44.197.44.44v.45c0 .698-.815.871-1.422.871l-.956-1.76h1.938zm-4.419-9.677h-5.709v-.608c.001-.814-.708-1.455-1.532-1.387l-4.172.464c-.733.061-1.29.664-1.29 1.387v3.286c0 .723.556 1.325 1.288 1.386l4.171.466c.825.069 1.535-.572 1.535-1.388v-.607h2.224l.808-.988.815.989.871-.988.812.988 1.476-1.294-1.297-1.706zm-10.709 3.534l-.664-.059c-.187-.016-.336-.167-.335-.345v-3.286c0-.177.148-.329.335-.344l.663-.06v4.094z"
     id="path1555"
     style="fill:#008000" />
</svg>
