<?xml version="1.0" encoding="UTF-8" standalone="no"?>
<svg
   xmlns:osb="http://www.openswatchbook.org/uri/2009/osb"
   xmlns:dc="http://purl.org/dc/elements/1.1/"
   xmlns:cc="http://creativecommons.org/ns#"
   xmlns:rdf="http://www.w3.org/1999/02/22-rdf-syntax-ns#"
   xmlns:svg="http://www.w3.org/2000/svg"
   xmlns="http://www.w3.org/2000/svg"
   xmlns:xlink="http://www.w3.org/1999/xlink"
   xmlns:sodipodi="http://sodipodi.sourceforge.net/DTD/sodipodi-0.dtd"
   xmlns:inkscape="http://www.inkscape.org/namespaces/inkscape"
   width="4.3301287in"
   height="1.335876in"
   viewBox="0 0 1299.0396 400.76324"
   version="1.1"
   id="svg3"
   sodipodi:docname="logo3.svg"
   inkscape:version="0.92.4 (33fec40, 2019-01-16)">
  <metadata
     id="metadata9">
    <rdf:RDF>
      <cc:Work
         rdf:about="">
        <dc:format>image/svg+xml</dc:format>
        <dc:type
           rdf:resource="http://purl.org/dc/dcmitype/StillImage" />
        <dc:title></dc:title>
      </cc:Work>
    </rdf:RDF>
  </metadata>
  <defs
     id="defs7">
    <linearGradient
       inkscape:collect="always"
       id="linearGradient2719">
      <stop
         style="stop-color:#ffffff;stop-opacity:1;"
         offset="0"
         id="stop2715" />
      <stop
         style="stop-color:#ffffff;stop-opacity:0;"
         offset="1"
         id="stop2717" />
    </linearGradient>
    <linearGradient
       inkscape:collect="always"
       id="linearGradient2596">
      <stop
         style="stop-color:#7fdaff;stop-opacity:0.78431374"
         offset="0"
         id="stop2592" />
      <stop
         style="stop-color:#7fdaff;stop-opacity:0.78431374"
         offset="1"
         id="stop2594" />
    </linearGradient>
    <inkscape:path-effect
       effect="bspline"
       id="path-effect2566"
       is_visible="true"
       weight="33.333333"
       steps="2"
       helper_size="0"
       apply_no_weight="true"
       apply_with_weight="true"
       only_selected="false" />
    <linearGradient
       id="linearGradient2338"
       osb:paint="solid">
      <stop
         style="stop-color:#ffff00;stop-opacity:1;"
         offset="0"
         id="stop2336" />
    </linearGradient>
    <inkscape:path-effect
       effect="bspline"
       id="path-effect876"
       is_visible="true"
       weight="33.333333"
       steps="2"
       helper_size="0"
       apply_no_weight="true"
       apply_with_weight="true"
       only_selected="false" />
    <linearGradient
       inkscape:collect="always"
       xlink:href="#linearGradient2596"
       id="linearGradient2598"
       x1="545.16937"
       y1="621.1037"
       x2="1201.3197"
       y2="519.85791"
       gradientUnits="userSpaceOnUse" />
    <inkscape:path-effect
       effect="bspline"
       id="path-effect2566-5"
       is_visible="true"
       weight="33.333333"
       steps="2"
       helper_size="0"
       apply_no_weight="true"
       apply_with_weight="true"
       only_selected="false" />
    <linearGradient
       inkscape:collect="always"
       xlink:href="#linearGradient2719"
       id="linearGradient2721"
       x1="644.79395"
       y1="638.43512"
       x2="1178.9611"
       y2="638.43512"
       gradientUnits="userSpaceOnUse" />
    <linearGradient
       inkscape:collect="always"
       xlink:href="#linearGradient2596"
       id="linearGradient2760"
       gradientUnits="userSpaceOnUse"
       x1="545.16937"
       y1="621.1037"
       x2="1201.3197"
       y2="519.85791" />
  </defs>
  <sodipodi:namedview
     pagecolor="#ffffff"
     bordercolor="#666666"
     borderopacity="1"
     objecttolerance="10"
     gridtolerance="10"
     guidetolerance="10"
     inkscape:pageopacity="0"
     inkscape:pageshadow="2"
     inkscape:window-width="1920"
     inkscape:window-height="1026"
     id="namedview5"
     showgrid="false"
     inkscape:zoom="1.6050072"
     inkscape:cx="134.46964"
     inkscape:cy="-29.042883"
     inkscape:window-x="0"
     inkscape:window-y="28"
     inkscape:window-maximized="1"
     inkscape:current-layer="layer2"
     inkscape:snap-text-baseline="false" />
  <g
     inkscape:groupmode="layer"
     id="layer2"
     inkscape:label="Layer 2"
     style="display:inline"
     transform="translate(0.54315702,-2.3362642)">
    <path
       id="Selection"
       d="m 2.2078508,321.13199 c 8.0911122,-3.01972 22.4005162,-24.72192 29.7204762,-32.7745 13.158777,-14.42745 33.111155,-30.09028 48.620168,-40.58296 17.222702,-11.65181 36.391665,-21.41246 55.083275,-28.77871 0,0 18.36107,-5.93265 18.36107,-5.93265 0,0 24.48145,-8.12881 24.48145,-8.12881 0,0 19.58516,-3.41622 19.58516,-3.41622 21.13971,-4.4228 44.7276,-9.97419 66.09991,-10.01993 0,0 20.80922,-1.5251 20.80922,-1.5251 0,0 39.17031,-1.52512 39.17031,-1.52512 0,0 23.2574,-1.52509 23.2574,-1.52509 0,0 20.80921,-1.52512 20.80921,-1.52512 0,0 40.39439,-1.52509 40.39439,-1.52509 0,0 52.63512,-3.1112 52.63512,-3.1112 0,0 14.68887,0 14.68887,0 0,0 14.68887,-1.52511 14.68887,-1.52511 0,0 19.58515,0 19.58515,0 0,0 14.68889,-1.46409 14.68889,-1.46409 0,0 23.25735,0 23.25735,0 0,0 14.68887,-1.58612 14.68887,-1.58612 0,0 11.01665,0 11.01665,0 0,0 29.37775,-4.25503 29.37775,-4.25503 0,0 62.42767,-7.88479 62.42767,-7.88479 0,0 13.46482,0 13.46482,0 0,0 45.29067,-6.52743 45.29067,-6.52743 0,0 39.17033,-7.13749 39.17033,-7.13749 0,0 11.01664,0 11.01664,0 0,0 26.9296,-3.37049 26.9296,-3.37049 0,0 44.06661,-4.45329 44.06661,-4.45329 0,0 12.24072,-1.44885 12.24072,-1.44885 0,0 15.91293,0 15.91293,0 0,0 14.68888,-1.46409 14.68888,-1.46409 0,0 33.04995,0 33.04995,0 0,0 20.80924,1.52508 20.80924,1.52508 30.95677,0.0611 62.23183,5.6734 93.02963,9.4099 0,0 72.22,14.99176 72.22,14.99176 -6.1692,2.11989 -26.6846,-1.40308 -35.498,-1.5251 0,0 -18.361,-1.5251 -18.361,-1.5251 0,0 -45.2906,0 -45.2906,0 0,0 -68.54817,0 -68.54817,0 0,0 -18.3611,1.5251 -18.3611,1.5251 0,0 -56.30732,5.84116 -56.30732,5.84116 0,0 -30.60181,3.56873 -30.60181,3.56873 0,0 -13.4648,2.79093 -13.4648,2.79093 0,0 -13.46479,0 -13.46479,0 0,0 -66.09991,13.07012 -66.09991,13.07012 0,0 -15.91296,2.30294 -15.91296,2.30294 0,0 -36.72216,8.90658 -36.72216,8.90658 0,0 -20.80925,3.85853 -20.80925,3.85853 0,0 -36.72217,10.50794 -36.72217,10.50794 0,0 -19.58514,4.40757 -19.58514,4.40757 0,0 -29.37774,9.31836 -29.37774,9.31836 0,0 -15.91295,3.87377 -15.91295,3.87377 0,0 -28.15366,9.69966 -28.15366,9.69966 0,0 -11.01665,2.53167 -11.01665,2.53167 0,0 -28.15367,9.45565 -28.15367,9.45565 0,0 -18.36108,3.90426 -18.36108,3.90426 -15.06833,4.07201 -34.84933,10.96549 -50.18695,11.19425 -12.48555,0.18302 -29.7817,1.05233 -41.61848,-2.28767 0,0 -75.89249,-35.29088 -75.89249,-35.29088 0,0 -11.01665,-3.66024 -11.01665,-3.66024 0,0 -24.48145,-9.24213 -24.48145,-9.24213 0,0 -36.72217,-7.41199 -36.72217,-7.41199 0,0 -11.01665,0 -11.01665,0 0,0 -11.01665,-1.54037 -11.01665,-1.54037 0,0 -35.49809,4.40755 -35.49809,4.40755 -9.7681,1.9979 -16.02312,2.69944 -25.70552,6.77146 -18.65486,7.80854 -36.06118,20.05509 -51.41105,35.30614 0,0 -12.240724,12.94813 -12.240724,12.94813 5.851048,1.46409 9.131584,-4.51429 13.464794,-8.57108 0,0 19.58515,-14.12247 19.58515,-14.12247 21.6416,-13.5429 47.97142,-21.8242 72.22027,-22.99854 9.65794,-0.47278 25.71776,3.33996 35.49811,5.38361 0,0 17.13702,3.20271 17.13702,3.20271 16.12103,4.34655 47.46951,17.50819 62.42767,26.26229 0,0 36.72217,22.57153 36.72217,22.57153 0,0 12.24073,5.39886 12.24073,5.39886 18.52023,8.54057 38.77863,16.1356 58.7555,16.42536 10.84527,0.15258 14.21148,-1.37259 24.48144,-3.64499 0,0 15.91294,-3.09597 15.91294,-3.09597 0,0 31.82588,-10.43171 31.82588,-10.43171 0,0 117.51095,-39.63742 117.51095,-39.63742 0,0 11.01666,-2.50117 11.01666,-2.50117 0,0 36.72216,-11.362 36.72216,-11.362 0,0 14.68886,-3.17222 14.68886,-3.17222 0,0 39.17031,-10.85874 39.17031,-10.85874 0,0 22.03332,-4.1483 22.03332,-4.1483 0,0 40.3944,-9.82166 40.3944,-9.82166 0,0 11.01665,-0.88455 11.01665,-0.88455 0,0 63.65175,-11.34677 63.65175,-11.34677 0,0 25.70552,-2.2114 25.70552,-2.2114 0,0 40.39438,-4.45331 40.39438,-4.45331 0,0 15.91295,-1.38784 15.91295,-1.38784 0,0 25.70551,-1.52511 25.70551,-1.52511 0,0 20.80924,-1.52509 20.80924,-1.52509 0,0 57.53157,0 57.53157,0 0,0 18.3609,1.52509 18.3609,1.52509 0,0 20.8091,1.58611 20.8091,1.58611 0,0 11.0167,0 11.0167,0 0,0 25.7056,2.98921 25.7056,2.98921 0,0 23.2573,1.52509 23.2573,1.52509 40.5901,0.0764 89.8591,-7.61026 127.3035,-27.45183 -4.4311,-2.01315 -10.6862,-0.0305 -15.9131,0 0,0 -22.0332,1.46408 -22.0332,1.46408 0,0 -15.9129,0 -15.9129,0 0,0 -12.2408,-1.46408 -12.2408,-1.46408 -27.7128,-0.39654 -54.6303,-5.39887 -82.0127,-10.24871 0,0 -29.3777,-4.13302 -29.3777,-4.13302 0,0 -45.2906,-9.5929 -45.2906,-9.5929 0,0 -22.0333,-2.39441 -22.0333,-2.39441 0,0 -56.30738,-7.32051 -56.30738,-7.32051 0,0 -12.24073,-1.44885 -12.24073,-1.44885 0,0 -18.36108,0 -18.36108,0 0,0 -12.24072,-1.38783 -12.24072,-1.38783 0,0 -17.13702,0 -17.13702,0 0,0 -14.68885,1.44883 -14.68885,1.44883 0,0 -18.36111,0 -18.36111,0 0,0 -29.37773,3.11123 -29.37773,3.11123 0,0 -12.24072,0 -12.24072,0 0,0 -28.15367,3.24846 -28.15367,3.24846 0,0 -26.92958,2.79094 -26.92958,2.79094 0,0 -12.24074,1.38783 -12.24074,1.38783 0,0 -44.06661,5.99365 -44.06661,5.99365 0,0 -45.29067,6.08518 -45.29067,6.08518 0,0 -28.15367,2.04364 -28.15367,2.04364 0,0 -85.68506,11.88055 -85.68506,11.88055 0,0 -12.24073,0 -12.24073,0 0,0 -20.80922,2.02839 -20.80922,2.02839 0,0 -12.24072,0 -12.24072,0 0,0 -14.68889,1.08282 -14.68889,1.08282 0,0 -17.13701,0 -17.13701,0 0,0 -19.58514,1.52509 -19.58514,1.52509 0,0 -34.27403,1.52512 -34.27403,1.52512 0,0 -14.68888,1.52511 -14.68888,1.52511 0,0 -13.4648,0 -13.4648,0 0,0 -12.24071,1.52509 -12.24071,1.52509 0,0 -68.54807,4.57531 -68.54807,4.57531 0,0 -14.68886,1.38785 -14.68886,1.38785 0,0 -28.15367,1.92164 -28.15367,1.92164 0,0 -40.3944,4.31603 -40.3944,4.31603 12.64469,-5.74963 29.40224,-5.84115 42.84255,-8.28131 0,0 58.75547,-11.11799 58.75547,-11.11799 0,0 20.80923,-2.19617 20.80923,-2.19617 0,0 46.51475,-8.25081 46.51475,-8.25081 0,0 41.61847,-6.00889 41.61847,-6.00889 0,0 26.92958,-20.81768 26.92958,-20.81768 0,0 37.94627,-25.4997 37.94627,-25.4997 0,0 13.46479,-7.061233 13.46479,-7.061233 0,0 15.91293,-9.39462 15.91293,-9.39462 0,0 14.68887,-6.695202 14.68887,-6.695202 0,0 44.06661,-19.948366 44.06661,-19.948366 0,0 11.01665,-3.507717 11.01665,-3.507717 0,0 26.92958,-10.385956 26.92958,-10.385956 0,0 13.4648,-2.989201 13.4648,-2.989201 19.62189,-5.154853 41.12884,-11.758557 61.20364,-11.880562 0,0 18.36108,-1.525112 18.36108,-1.525112 0,0 29.37774,-1.464099 29.37774,-1.464099 0,0 18.36109,1.464099 18.36109,1.464099 33.83336,0.06109 54.09175,4.117781 86.90914,13.085393 0,0 22.03328,6.31393 22.03328,6.31393 0,0 17.13702,7.259484 17.13702,7.259484 0,0 13.46479,4.910833 13.46479,4.910833 0,0 18.36109,8.937106 18.36109,8.937106 0,0 11.01668,4.087275 11.01668,4.087275 0,0 13.46476,7.167984 13.46476,7.167984 0,0 12.24073,4.804087 12.24073,4.804087 0,0 17.13706,8.921837 17.13706,8.921837 0,0 15.91292,6.71047 15.91292,6.71047 0,0 13.4649,7.03071 13.4649,7.03071 0,0 18.3611,7.77802 18.3611,7.77802 0,0 15.9128,7.70177 15.9128,7.70177 0,0 8.5686,2.74517 8.5686,2.74517 0,0 23.2573,9.66918 23.2573,9.66918 0,0 9.7925,2.28764 9.7925,2.28764 17.4308,5.13961 34.7391,10.20294 52.635,12.59736 0,0 12.2407,0 12.2407,0 0,0 24.4813,3.0502 24.4813,3.0502 0,0 22.0335,1.52511 22.0335,1.52511 0,0 15.913,0 15.913,0 0,0 42.8425,-4.31604 42.8425,-4.31604 11.641,-1.38783 20.3561,-1.12856 31.8258,-6.35968 -4.4434,-2.19615 -7.6504,-1.23533 -12.2407,-1.78436 0,0 -31.8259,-3.05021 -31.8259,-3.05021 0,0 -23.2573,-3.88902 -23.2573,-3.88902 0,0 -11.0167,-1.12858 -11.0167,-1.12858 0,0 -31.8258,-9.40989 -31.8258,-9.40989 0,0 -12.2408,-3.41625 -12.2408,-3.41625 0,0 -55.0835,-24.462615 -55.0835,-24.462615 0,0 -41.6182,-17.050663 -41.6182,-17.050663 0,0 -17.1368,-7.869528 -17.1368,-7.869528 0,0 -13.4647,-4.727826 -13.4647,-4.727826 0,0 -23.2574,-10.294438 -23.2574,-10.294438 0,0 -9.7928,-3.034965 -9.7928,-3.034965 0,0 -26.92953,-10.919731 -26.92953,-10.919731 0,0 -9.79256,-2.729933 -9.79256,-2.729933 0,0 -26.92959,-10.050428 -26.92959,-10.050428 0,0 -12.24073,-2.867206 -12.24073,-2.867206 0,0 -42.84253,-10.76722 -42.84253,-10.76722 0,0 -13.46479,-1.311598 -13.46479,-1.311598 -25.58312,-4.575294 -55.09551,-9.974167 -80.78878,-10.0199214 0,0 -18.36108,-1.5250916 -18.36108,-1.5250916 0,0 -24.48146,0 -24.48146,0 0,0 -15.91293,1.5250916 -15.91293,1.5250916 -25.55864,0.3660348 -50.6766,5.0480864 -75.89249,10.0046834 0,0 -19.58516,4.072027 -19.58516,4.072027 0,0 -57.53141,21.153177 -57.53141,21.153177 0,0 -47.73882,20.985417 -47.73882,20.985417 0,0 -66.0999,37.380272 -66.0999,37.380272 -22.63311,14.091946 -44.28694,31.096846 -69.77213,35.611156 0,0 -51.41103,10.98076 -51.41103,10.98076 0,0 -31.82589,5.3531 -31.82589,5.3531 0,0 -28.15367,6.31392 -28.15367,6.31392 0,0 -45.29069,8.40334 -45.29069,8.40334 0,0 -40.39437,9.85214 -40.39437,9.85214 0,0 -15.91295,2.91297 -15.91295,2.91297 0,0 -35.49811,10.62996 -35.49811,10.62996 0,0 -13.46478,3.79749 -13.46478,3.79749 -29.89185,10.66048 -55.315835,24.52367 -80.788799,46.9732 -6.609983,5.82588 -13.024131,11.25525 -19.046569,18.11822 0,0 -8.042153,10.66047 -8.042153,10.66047 -10.796314,13.60392 -24.9465939,35.33663 -31.6667482,52.49406 z"
       style="fill:#7fda05;fill-opacity:0.78391957;stroke:#ffff03;stroke-width:3.1485436;stroke-miterlimit:4;stroke-dasharray:1.57427177, 1.57427177;stroke-dashoffset:0;stroke-opacity:1"
       inkscape:connector-curvature="0" />
    <text
       xml:space="preserve"
       style="font-style:normal;font-weight:normal;font-size:135.46211243px;line-height:1.25;font-family:sans-serif;letter-spacing:0px;word-spacing:0px;opacity:1;fill:#ffffff;fill-opacity:1;stroke:#7fda00;stroke-width:4.68750429;stroke-linecap:round;stroke-linejoin:miter;stroke-miterlimit:0;stroke-dasharray:2.34375209, 2.34375209;stroke-dashoffset:46.87504196;stroke-opacity:0.78431373;paint-order:markers stroke fill"
       x="564.92786"
       y="426.91742"
       id="text4816"
       transform="matrix(1.2001639,-0.02210997,-0.27182601,0.83822724,0,0)"><tspan
         sodipodi:role="line"
         x="564.92786"
         y="426.91742"
         style="fill:#ffffff;fill-opacity:1;stroke:#7fda00;stroke-width:4.68750429;stroke-linecap:round;stroke-linejoin:miter;stroke-miterlimit:0;stroke-dasharray:2.34375209, 2.34375209;stroke-dashoffset:46.87504196;stroke-opacity:0.78431373;paint-order:markers stroke fill"
         id="tspan4818">ukr cars</tspan></text>
    <path
       sodipodi:type="spiral"
       style="fill:#7fda00;fill-opacity:0.78431373;fill-rule:evenodd;stroke:#ffff03;stroke-width:2.63437819;stroke-miterlimit:4;stroke-dasharray:1.3171891, 1.3171891;stroke-dashoffset:0;stroke-opacity:1"
       id="path878"
       sodipodi:cx="221.96181"
       sodipodi:cy="556.85156"
       sodipodi:expansion="1"
       sodipodi:revolution="3"
       sodipodi:radius="97.351677"
       sodipodi:argument="-19.13335"
       sodipodi:t0="0.0015979344"
       d="m 222.11239,556.81252 c 4.79675,-1.0906 3.90186,5.95702 1.92442,8.04264 -5.37274,5.66666 -14.38836,1.77031 -17.93161,-3.89263 -6.30145,-10.07118 -0.1784,-22.9032 9.70967,-27.82058 14.47551,-7.19873 31.55443,1.39455 37.70956,15.52671 8.19257,18.81012 -2.95548,40.25748 -21.34375,47.59854 -23.11948,9.22986 -48.98608,-4.50939 -57.48752,-27.1608 -10.2901,-27.41718 6.05909,-57.72925 32.97785,-67.37649 31.70861,-11.36385 66.48154,7.6061 77.26546,38.79489 12.4462,35.99633 -9.15134,75.23992 -44.61193,87.15444 -40.28165,13.53435 -84.00259,-10.69534 -97.04342,-50.42898 -14.62661,-44.56535 12.23843,-92.76837 56.24603,-106.93239 47.76395,-15.37302 99.51452,12.4999 115.89226,59.27519"
       transform="matrix(-1.5015545,-0.31471091,0.23184699,-0.88854504,427.07339,882.51598)" />
    <path
       style="fill:url(#linearGradient2760);fill-opacity:1;stroke:#7fda00;stroke-width:6.25000572;stroke-linecap:butt;stroke-linejoin:miter;stroke-miterlimit:4;stroke-dasharray:none;stroke-dashoffset:0;stroke-opacity:0.78431373"
       d="M 545.16939,621.10368 C 763.88968,587.35455 982.60644,553.60597 1201.3197,519.85793"
       id="path2564"
       inkscape:connector-curvature="0"
       inkscape:path-effect="#path-effect2566"
       inkscape:original-d="M 545.16939,621.10368 C 763.88928,587.35196 982.60604,553.6034 1201.3197,519.85793"
       transform="rotate(8.7782061,2204.0122,621.43726)" />
  </g>
</svg>
