<?xml version="1.0" encoding="UTF-8" standalone="no"?>
<svg
   xmlns:dc="http://purl.org/dc/elements/1.1/"
   xmlns:cc="http://creativecommons.org/ns#"
   xmlns:rdf="http://www.w3.org/1999/02/22-rdf-syntax-ns#"
   xmlns:svg="http://www.w3.org/2000/svg"
   xmlns="http://www.w3.org/2000/svg"
   xmlns:sodipodi="http://sodipodi.sourceforge.net/DTD/sodipodi-0.dtd"
   xmlns:inkscape="http://www.inkscape.org/namespaces/inkscape"
   width="24"
   height="24"
   viewBox="0 0 24 24"
   version="1.1"
   id="svg2934"
   sodipodi:docname="pay.svg"
   inkscape:version="0.92.4 (33fec40, 2019-01-16)">
  <metadata
     id="metadata2940">
    <rdf:RDF>
      <cc:Work
         rdf:about="">
        <dc:format>image/svg+xml</dc:format>
        <dc:type
           rdf:resource="http://purl.org/dc/dcmitype/StillImage" />
        <dc:title></dc:title>
      </cc:Work>
    </rdf:RDF>
  </metadata>
  <defs
     id="defs2938" />
  <sodipodi:namedview
     pagecolor="#ffffff"
     bordercolor="#666666"
     borderopacity="1"
     objecttolerance="10"
     gridtolerance="10"
     guidetolerance="10"
     inkscape:pageopacity="0"
     inkscape:pageshadow="2"
     inkscape:window-width="1920"
     inkscape:window-height="1026"
     id="namedview2936"
     showgrid="false"
     inkscape:zoom="9.8333333"
     inkscape:cx="12"
     inkscape:cy="12"
     inkscape:window-x="0"
     inkscape:window-y="28"
     inkscape:window-maximized="1"
     inkscape:current-layer="svg2934" />
  <path
     d="M19.5 11c-2.485 0-4.5 2.015-4.5 4.5s2.015 4.5 4.5 4.5 4.5-2.015 4.5-4.5-2.015-4.5-4.5-4.5zm-.469 6.484l-1.688-1.637.696-.697.991.94 2.116-2.169.696.696-2.811 2.867zm-15.031-2.484h5v1h-5v-1zm8-1h-8v-1h8v1zm1.502 4h-11.002c-.276 0-.5-.224-.5-.5v-6.5h12.82c1.184-1.23 2.842-2 4.68-2 .886 0 1.729.179 2.5.501v-3.501c0-1.104-.896-2-2-2h-18c-1.104 0-2 .896-2 2v12c0 1.104.896 2 2 2h12.82c-.553-.576-1.006-1.251-1.318-2zm-11.502-11.5c0-.276.224-.5.5-.5h17c.276 0 .5.224.5.5v1.5h-18v-1.5z"
     id="path2932"
     style="fill:#008000" />
</svg>
