<?xml version="1.0" encoding="UTF-8" standalone="no"?>
<svg
   xmlns:dc="http://purl.org/dc/elements/1.1/"
   xmlns:cc="http://creativecommons.org/ns#"
   xmlns:rdf="http://www.w3.org/1999/02/22-rdf-syntax-ns#"
   xmlns:svg="http://www.w3.org/2000/svg"
   xmlns="http://www.w3.org/2000/svg"
   xmlns:sodipodi="http://sodipodi.sourceforge.net/DTD/sodipodi-0.dtd"
   xmlns:inkscape="http://www.inkscape.org/namespaces/inkscape"
   width="24"
   height="24"
   fill-rule="evenodd"
   clip-rule="evenodd"
   version="1.1"
   id="svg4229"
   sodipodi:docname="time.svg"
   inkscape:version="0.92.4 (33fec40, 2019-01-16)">
  <metadata
     id="metadata4235">
    <rdf:RDF>
      <cc:Work
         rdf:about="">
        <dc:format>image/svg+xml</dc:format>
        <dc:type
           rdf:resource="http://purl.org/dc/dcmitype/StillImage" />
        <dc:title></dc:title>
      </cc:Work>
    </rdf:RDF>
  </metadata>
  <defs
     id="defs4233" />
  <sodipodi:namedview
     pagecolor="#ffffff"
     bordercolor="#666666"
     borderopacity="1"
     objecttolerance="10"
     gridtolerance="10"
     guidetolerance="10"
     inkscape:pageopacity="0"
     inkscape:pageshadow="2"
     inkscape:window-width="1920"
     inkscape:window-height="1026"
     id="namedview4231"
     showgrid="false"
     inkscape:zoom="9.8333333"
     inkscape:cx="12"
     inkscape:cy="12"
     inkscape:window-x="0"
     inkscape:window-y="28"
     inkscape:window-maximized="1"
     inkscape:current-layer="svg4229" />
  <path
     d="M12.666 22.908l-2.787-5.379-1.634.8c-1.773.86-5.383-6.191-3.649-7.12l1.648-.812-2.764-5.397-1.667.823c-5.702 2.972 3.351 20.569 9.183 17.903.096-.043 1.664-.815 1.67-.818zm4.902-2.603l1.041 1.71c-1.019.674-2.147 1.197-3.351 1.537l-.934-1.824c1.175-.28 2.27-.768 3.244-1.423zm2.922-3.022l1.882.752c-.678 1.162-1.546 2.199-2.56 3.071l-1.057-1.736c.668-.612 1.253-1.315 1.735-2.087zm.699-1.336c.522-1.211.811-2.546.811-3.947 0-5.519-4.481-10-10-10-2.497 0-4.781.917-6.534 2.432l-.933-1.824c2.05-1.632 4.645-2.608 7.467-2.608 6.623 0 12 5.377 12 12 0 1.664-.34 3.249-.953 4.69l-1.858-.743zm-3.511-.947h-1.438v-1.55h-2.88v-.989l2.46-3.96h1.858v3.81h.78v1.139h-.78v1.55zm-5.07 0h-4.608v-.919l.84-.76c1.42-1.27 2.11-2 2.13-2.761 0-.53-.32-.95-1.07-.95-.56 0-1.05.28-1.39.54l-.43-1.089c.49-.37 1.25-.67 2.13-.67 1.469 0 2.278.859 2.278 2.039 0 1.091-.789 1.961-1.728 2.801l-.6.5v.02h2.448v1.249zm3.632-2.689v-1.44c0-.391.02-.791.05-1.211h-.04c-.21.42-.38.8-.6 1.211l-.87 1.42v.02h1.46z"
     id="path4227"
     style="fill:#008000" />
</svg>
