<?xml version="1.0" encoding="utf-8"?><svg xmlns="http://www.w3.org/2000/svg" xmlns:xlink="http://www.w3.org/1999/xlink"><symbol viewBox="0 0 408.187 408.187" id="couple" xmlns="http://www.w3.org/2000/svg"><path d="M140.493 349.494c-56.8-30.4-123.2-101.6-131.2-159.2-4-22.4 3.2-44.8 20-60 12.8-12.8 29.6-20.8 47.2-20.8 38.4 0 66.4 38.4 67.2 40 0 0 28.8-40 67.2-40 17.6.8 35.2 8 47.2 20.8 16.8 15.2 24 37.6 20 60-8 57.6-74.4 128.8-131.2 159.2l-4 2.4-2.4-2.4z"/><path d="M259.693 296.694c-7.2-4-13.6-8-20-12.8l-7.2-4.8 5.6-6.4c23.2-28.8 37.6-57.6 40.8-81.6 4-22.4-3.2-44.8-20-60-12.8-12.8-29.6-20.8-47.2-20.8-28 0-50.4 20-61.6 32.8l-5.6 6.4-6.4-6.4-8-8-2.4-3.2v-3.2c-1.6-19.2 6.4-38.4 20.8-51.2 12.8-12.8 29.6-20.8 48-20.8h5.6c36 3.2 61.6 39.2 61.6 40s26.4-36 61.6-39.2h5.6c18.4.8 35.2 8 48 20.8 16.8 15.2 24 37.6 20 60-8 57.6-74.4 128.8-131.2 159.2l-4 2.4-4-3.2z"/><path d="M324.493 48.694c-28 3.2-50.4 23.2-60.8 35.2-10.4-11.2-32.8-32-60.8-35.2-22.4-1.6-44 6.4-59.2 23.2-12.8 11.2-20.8 27.2-23.2 44.8-12.8-8.8-28-14.4-44-14.4-20 .8-39.2 8.8-52.8 23.2-18.4 16.8-27.2 42.4-22.4 66.4 8.8 61.6 80 137.6 139.2 167.2 2.4.8 4.8.8 7.2 0 32.8-17.6 61.6-40.8 86.4-68.8 8.8 5.6 17.6 11.2 26.4 16 2.4.8 4.8.8 7.2 0 59.2-29.6 130.4-105.6 139.2-167.2 4.8-24.8-4-49.6-22.4-66.4-16-17.6-37.6-25.6-60-24zm-180.8 293.6c-54.4-28.8-119.2-97.6-127.2-152.8-4-19.2 3.2-39.2 17.6-52.8 11.2-11.2 26.4-18.4 42.4-19.2 34.4 0 60.8 36 60.8 36.8 1.6 2.4 4 3.2 6.4 3.2 2.4 0 4.8-1.6 6.4-3.2 0 0 26.4-36.8 61.6-36.8 16 .8 31.2 7.2 42.4 19.2 14.4 13.6 20.8 33.6 17.6 52.8-8.8 55.2-72.8 124-128 152.8zm246.4-206.4c-8 55.2-72 124-127.2 153.6-6.4-4-13.6-8-20-12 22.4-28 39.2-58.4 42.4-85.6 4.8-24.8-4-49.6-22.4-66.4-13.6-14.4-32.8-22.4-52-23.2-32 0-56 23.2-67.2 35.2-2.4-2.4-4.8-5.6-8-8-1.6-16.8 5.6-33.6 18.4-45.6 12-12.8 29.6-20 47.2-18.4 32 3.2 56 36 56 36 1.6 2.4 4 3.2 6.4 3.2 2.4 0 4.8-1.6 6.4-3.2 0 0 24-32.8 56-36 17.6-.8 35.2 5.6 47.2 18.4 14.4 12.8 20.8 32.8 16.8 52z"/></symbol><symbol viewBox="0 0 383.637 383.637" id="cupid" xmlns="http://www.w3.org/2000/svg"><path d="M38.037 316.38l29.6-24.8 6.4 32.8-30.4 24z"/><path d="M6.837 304.38l30.4-24.8 30.4 12-29.6 24.8zm30.4-24.8l29.6-24.8 30.4 12-29.6 24.8z"/><path d="M67.637 291.58l29.6-24.8 6.4 32.8-29.6 24.8z"/><path d="M178.837 353.98c-26.4-14.4-51.2-32.8-72.8-53.6l-1.6-1.6-6.4-32 .8-.8-.8.8-30.4-12h-4.8l-2.4-3.2c-25.6-33.6-80-117.6-21.6-171.2 15.2-16 36.8-25.6 59.2-26.4h7.2c44.8 4.8 76.8 48.8 76.8 49.6s32-44.8 76.8-49.6h7.2c22.4.8 44 10.4 59.2 26.4 20.8 19.2 30.4 47.2 24.8 74.4-10.4 72.8-93.6 161.6-164.8 199.2l-2.4 2.4-4-2.4zm-71.2-95.2l24.8-20.8-24.8 20.8z"/><path d="M380.437 30.78c-1.6-1.6-3.2-2.4-4.8-3.2l-57.6-7.2c-4-.8-8 2.4-8.8 7.2-.8 4 2.4 8 7.2 8.8l39.2 4.8-32 26.4c-17.6-16-41.6-23.2-64.8-21.6-36 4-64 30.4-76 44.8-12-13.6-40-40.8-76-44.8-25.6-2.4-49.6 7.2-72.8 28-44.8 40.8-36.8 107.2 20 180.8l-51.2 42.4c-3.2 3.2-4 8-.8 11.2.8.8 1.6 1.6 3.2 2.4l26.4 10.4 5.6 28c.8 4 4.8 7.2 9.6 6.4 1.6 0 2.4-.8 3.2-1.6l54.4-44.8c22.4 20.8 48 39.2 75.2 53.6 2.4.8 4.8.8 7.2 0 72-36.8 160.8-130.4 172-206.4 5.6-28-3.2-56.8-23.2-76.8l30.4-24.8-2.4 40c0 4 3.2 8 7.2 8.8h.8c4 0 8-3.2 8-7.2l4-58.4c-.8-3.2-1.6-5.6-3.2-7.2zm-344 276l-13.6-4.8 16-13.6 13.6 5.6-16 12.8zm12.8 27.2l-2.4-14.4 16-12.8 2.4 14.4-16 12.8zm4-56.8l16-12.8 13.6 5.6-16 12.8-13.6-5.6zm26.4 32l-2.4-14.4 11.2-8.8 4.8-4 1.6 14.4-15.2 12.8zm263.2-155.2c-9.6 69.6-92 156.8-160.8 193.6-25.6-14.4-49.6-32-71.2-52l-4.8-24.8 5.6-4.8 5.6-4 20-16.8c3.2-3.2 2.4-8.8-.8-11.2-2.4-2.4-6.4-2.4-8.8-.8l-31.2 25.6-26.4-10.4c-.8 0-2.4-.8-3.2-.8-27.2-35.2-75.2-112-22.4-160.8 19.2-17.6 39.2-25.6 60-24 40.8 4 71.2 45.6 71.2 46.4 1.6 2.4 4 3.2 6.4 3.2 2.4 0 4.8-1.6 6.4-3.2 0 0 30.4-41.6 71.2-46.4 20.8-2.4 40.8 5.6 60 24 19.2 16.8 28 42.4 23.2 67.2z"/></symbol></svg>