<?xml version="1.0" encoding="UTF-8" standalone="no"?>
<svg
   xmlns:dc="http://purl.org/dc/elements/1.1/"
   xmlns:cc="http://creativecommons.org/ns#"
   xmlns:rdf="http://www.w3.org/1999/02/22-rdf-syntax-ns#"
   xmlns:svg="http://www.w3.org/2000/svg"
   xmlns="http://www.w3.org/2000/svg"
   xmlns:sodipodi="http://sodipodi.sourceforge.net/DTD/sodipodi-0.dtd"
   xmlns:inkscape="http://www.inkscape.org/namespaces/inkscape"
   width="24"
   height="24"
   viewBox="0 0 24 24"
   version="1.1"
   id="svg4"
   sodipodi:docname="certificate.svg"
   inkscape:version="0.92.4 (33fec40, 2019-01-16)">
  <metadata
     id="metadata10">
    <rdf:RDF>
      <cc:Work
         rdf:about="">
        <dc:format>image/svg+xml</dc:format>
        <dc:type
           rdf:resource="http://purl.org/dc/dcmitype/StillImage" />
        <dc:title></dc:title>
      </cc:Work>
    </rdf:RDF>
  </metadata>
  <defs
     id="defs8" />
  <sodipodi:namedview
     pagecolor="#ffffff"
     bordercolor="#666666"
     borderopacity="1"
     objecttolerance="10"
     gridtolerance="10"
     guidetolerance="10"
     inkscape:pageopacity="0"
     inkscape:pageshadow="2"
     inkscape:window-width="1920"
     inkscape:window-height="1026"
     id="namedview6"
     showgrid="false"
     inkscape:zoom="9.8333333"
     inkscape:cx="12"
     inkscape:cy="27.218593"
     inkscape:window-x="0"
     inkscape:window-y="28"
     inkscape:window-maximized="1"
     inkscape:current-layer="svg4" />
  <path
     d="M15.463 14.861c-.241.705-.242.569 0 1.277l.037.223c0 .225-.111.441-.308.578-.628.435-.545.325-.781 1.033-.099.295-.385.495-.708.495h-.001c-.774-.003-.64-.044-1.265.395-.129.092-.283.138-.437.138s-.308-.046-.438-.138c-.625-.439-.49-.397-1.265-.395h-.002c-.322 0-.608-.2-.706-.495-.236-.709-.156-.599-.781-1.033-.197-.136-.308-.354-.308-.578l.037-.222c.242-.705.242-.569 0-1.277l-.037-.223c0-.225.111-.441.309-.578.625-.434.544-.324.781-1.033.098-.296.384-.495.706-.495h.002c.772.002.636.047 1.265-.395.129-.092.283-.138.437-.138s.308.046.438.137c.625.439.49.397 1.265.395h.001c.323 0 .609.199.708.495.236.708.153.598.781 1.033.196.137.308.354.308.578l-.038.223zm-1.713.639c0-.966-.783-1.75-1.75-1.75s-1.75.784-1.75 1.75.783 1.75 1.75 1.75 1.75-.784 1.75-1.75zm-3.067 3.966c-.383 0-.686-.037-.937-.107-.154 1.534-.68 2.685-1.746 3.796.428.053.975-.047 1.416-.28.159.318.326.715.384 1.125 1.005-1.149 1.633-2.527 1.867-4.035-.472-.091-.617-.248-.984-.499zm2.634 0c-.368.253-.521.41-.983.499.234 1.508.862 2.886 1.866 4.036.058-.41.225-.807.384-1.125.441.232.988.333 1.416.28-1.064-1.109-1.584-2.266-1.739-3.797-.252.069-.556.107-.944.107zm-11.317-19.466v21h5.154c.337-.535.528-1.104.602-1.841l.015-.159h-3.771v-17h16v17h-3.765l.016.156c.075.742.265 1.312.598 1.844h5.151v-21h-20zm16 5h-12v1h12v-1zm0 2h-12v1h12v-1zm0 2h-12v1h12v-1z"
     id="path2"
     style="fill:#008000;fill-opacity:1" />
  <g
     inkscape:groupmode="layer"
     id="layer1"
     inkscape:label="Layer 1"
     style="display:inline"
     sodipodi:insensitive="true" />
</svg>
